<svg width="26" height="26" viewBox="0 0 26 26" fill="none" xmlns="http://www.w3.org/2000/svg">
<path d="M13.3396 12.9765C13.3826 12.9609 13.4282 12.9491 13.4739 12.9361C13.3582 12.6796 13.2369 12.4256 13.11 12.1744C10.6582 12.9009 8.31069 12.9074 7.89205 12.9009C7.88814 12.9335 7.88814 12.9674 7.88814 13C7.88814 14.2324 8.33155 15.4166 9.13753 16.3465C9.40619 15.9135 10.8303 13.789 13.3396 12.9765ZM9.90046 17.0599C10.6098 17.6035 11.4495 17.9512 12.3354 18.0684C13.2214 18.1856 14.1226 18.0681 14.9489 17.7276C14.7093 16.4271 14.3505 15.1515 13.8769 13.9168C11.1107 14.8949 10.0661 16.7364 9.90046 17.0599V17.0599ZM16.3326 9.12269C15.7298 8.60489 15.0146 8.23474 14.2437 8.04163C13.4729 7.84853 12.6677 7.83778 11.8919 8.01024C12.5726 8.93495 13.1916 9.90343 13.7451 10.9094C15.4184 10.2664 16.1748 9.33918 16.3326 9.12269V9.12269ZM12.6157 11.2576C12.0536 10.2719 11.4376 9.318 10.7703 8.40018C10.0815 8.73582 9.47651 9.22134 8.99968 9.82115C8.52285 10.421 8.18628 11.1199 8.01464 11.8667H8.03681C8.5663 11.8667 10.4482 11.8236 12.6157 11.2576ZM14.975 13.6468C15.5814 15.3331 15.8605 16.7338 15.9401 17.1824C17.0515 16.3988 17.8063 15.2059 18.0385 13.8659C17.3631 13.6741 16.6643 13.5771 15.9622 13.5777C15.6258 13.5777 15.2932 13.6012 14.975 13.6468V13.6468ZM13.0005 0.47998C6.08578 0.47998 0.480469 6.08529 0.480469 13C0.480469 19.9147 6.08578 25.52 13.0005 25.52C19.9152 25.52 25.5205 19.9147 25.5205 13C25.5205 6.08529 19.9152 0.47998 13.0005 0.47998ZM13.0005 19.1257C11.376 19.1243 9.81847 18.4785 8.66957 17.3301C7.52067 16.1817 6.87426 14.6244 6.87219 13C6.87357 11.3751 7.51967 9.81713 8.66865 8.66816C9.81762 7.51918 11.3756 6.87308 13.0005 6.8717C14.625 6.87377 16.1824 7.52014 17.3311 8.669C18.4797 9.81786 19.1257 11.3754 19.1274 13C19.1257 14.6243 18.4796 16.1816 17.3309 17.33C16.1822 18.4785 14.6248 19.1243 13.0005 19.1257ZM14.2029 11.7923C14.3164 12.0271 14.422 12.2579 14.5185 12.4848L14.6111 12.7065C14.9724 12.6635 15.3584 12.6426 15.7614 12.6426C16.5496 12.6442 17.3359 12.7193 18.1102 12.867C18.0804 11.7562 17.6905 10.6851 16.999 9.81521C16.7904 10.0839 15.9322 11.0711 14.2029 11.7923V11.7923Z" fill="#F1F6FA"/>
</svg>
